#Comment line ignore any data following # character 
#Hierarchical Translation and Rotation (.htr) file 
[Header]	
#Header keywords are followed by a single value 
FileType HTR		#Single word string
DataType HTRS		#Translation followed by rotation and scale data
FileVersion 1		#integer
NumSegments 84		#integer
NumFrames 2		#integer
DataFrameRate 30		#integer, data frame rate in this file
EulerRotationOrder ZYX
CalibrationUnits mm
RotationUnits Degrees
GlobalAxisofGravity Y
BoneLengthAxis Y
ScaleFactor 1.00
[SegmentNames&Hierarchy]
#CHILD	PARENT
MASTER GLOBAL
root MASTER
chest root
L_mid_tent01 root
R_mid_tent01 root
spine01 root
Bip01_Neck chest
L_humerus chest
R_humerus chest
weapon_bone chest
Bip01_Head Bip01_Neck
eye_left_bone Bip01_Head
eye_right_bone Bip01_Head
L_forearm L_humerus
L_front_hand L_forearm
L_weapon_bone L_forearm
L_front_hand01_01 L_front_hand
L_front_hand02_01 L_front_hand
L_front_hand03_01 L_front_hand
L_front_hand01_02 L_front_hand01_01
L_front_hand02_02 L_front_hand02_01
L_front_hand03_02 L_front_hand03_01
R_forearm R_humerus
R_front_hand R_forearm
R_weapon_bone R_forearm
R_front_hand01_01 R_front_hand
R_front_hand02_01 R_front_hand
R_front_hand03_01 R_front_hand
R_front_hand01_02 R_front_hand01_01
R_front_hand02_02 R_front_hand02_01
R_front_hand03_02 R_front_hand03_01
null_rope01_connect L_mid_tent01
Rope1_Seg01 null_rope01_connect
Rope1_Seg02 Rope1_Seg01
Rope1_Seg03 Rope1_Seg02
Rope1_Seg04 Rope1_Seg03
Rope1_Seg05 Rope1_Seg04
Rope1_Seg06 Rope1_Seg05
Rope1_Seg07 Rope1_Seg06
Rope1_Seg09 Rope1_Seg07
L_mid_hand01 Rope1_Seg09
L_mid_hand02 Rope1_Seg09
L_mid_hand03 Rope1_Seg09
null_rope02_connect R_mid_tent01
Rope2_Seg01 null_rope02_connect
Rope2_Seg02 Rope2_Seg01
Rope2_Seg03 Rope2_Seg02
Rope2_Seg04 Rope2_Seg03
Rope2_Seg05 Rope2_Seg04
Rope2_Seg06 Rope2_Seg05
Rope2_Seg07 Rope2_Seg06
Rope2_Seg09 Rope2_Seg07
R_mid_hand01 Rope2_Seg09
R_mid_hand02 Rope2_Seg09
R_mid_hand03 Rope2_Seg09
spine02 spine01
spine03 spine02
pelvis spine03
null_rope03_connect pelvis
null_rope04_connect pelvis
Rope3_Seg01 null_rope03_connect
Rope3_Seg02 Rope3_Seg01
Rope3_Seg03 Rope3_Seg02
Rope3_Seg04 Rope3_Seg03
Rope3_Seg05 Rope3_Seg04
Rope3_Seg06 Rope3_Seg05
Rope3_Seg07 Rope3_Seg06
Rope3_Seg08 Rope3_Seg07
Rope3_Seg09 Rope3_Seg08
R_rear_hand01 Rope3_Seg09
R_rear_hand02 Rope3_Seg09
R_rear_hand03 Rope3_Seg09
Rope4_Seg01 null_rope04_connect
Rope4_Seg02 Rope4_Seg01
Rope4_Seg03 Rope4_Seg02
Rope4_Seg04 Rope4_Seg03
Rope4_Seg05 Rope4_Seg04
Rope4_Seg06 Rope4_Seg05
Rope4_Seg07 Rope4_Seg06
Rope4_Seg08 Rope4_Seg07
Rope4_Seg09 Rope4_Seg08
L_rear_hand01 Rope4_Seg09
L_rear_hand02 Rope4_Seg09
L_rear_hand03 Rope4_Seg09
[BasePosition]
#SegmentName Tx, Ty, Tz, Rx, Ry, Rz, BoneLength
MASTER 0.000000 0.000000 0.000000 -90.000000 0.000000 0.000000 10.000000 
root 0.000000 0.000000 0.000000 0.000000 0.000000 0.000000 10.000000 
chest 0.000000 0.000000 0.000000 0.000000 0.000000 0.000000 10.000000 
L_mid_tent01 0.000000 0.000000 0.000000 0.000000 0.000000 0.000000 10.000000 
R_mid_tent01 0.000000 0.000000 0.000000 0.000000 0.000000 0.000000 10.000000 
spine01 0.000000 0.000000 0.000000 0.000000 0.000000 0.000000 10.000000 
Bip01_Neck 0.000000 0.000000 0.000000 0.000000 0.000000 0.000000 10.000000 
L_humerus 0.000000 0.000000 0.000000 0.000000 0.000000 0.000000 10.000000 
R_humerus 0.000000 0.000000 0.000000 0.000000 0.000000 0.000000 10.000000 
weapon_bone 0.000000 0.000000 0.000000 0.000000 0.000000 0.000000 10.000000 
Bip01_Head 0.000000 0.000000 0.000000 0.000000 0.000000 0.000000 10.000000 
eye_left_bone 0.000000 0.000000 0.000000 0.000000 0.000000 0.000000 10.000000 
eye_right_bone 0.000000 0.000000 0.000000 0.000000 0.000000 0.000000 10.000000 
L_forearm 0.000000 0.000000 0.000000 0.000000 0.000000 0.000000 10.000000 
L_front_hand 0.000000 0.000000 0.000000 0.000000 0.000000 0.000000 10.000000 
L_weapon_bone 0.000000 0.000000 0.000000 0.000000 0.000000 0.000000 10.000000 
L_front_hand01_01 0.000000 0.000000 0.000000 0.000000 0.000000 0.000000 10.000000 
L_front_hand02_01 0.000000 0.000000 0.000000 0.000000 0.000000 0.000000 10.000000 
L_front_hand03_01 0.000000 0.000000 0.000000 0.000000 0.000000 0.000000 10.000000 
L_front_hand01_02 0.000000 0.000000 0.000000 0.000000 0.000000 0.000000 10.000000 
L_front_hand02_02 0.000000 0.000000 0.000000 0.000000 0.000000 0.000000 10.000000 
L_front_hand03_02 0.000000 0.000000 0.000000 0.000000 0.000000 0.000000 10.000000 
R_forearm 0.000000 0.000000 0.000000 0.000000 0.000000 0.000000 10.000000 
R_front_hand 0.000000 0.000000 0.000000 0.000000 0.000000 0.000000 10.000000 
R_weapon_bone 0.000000 0.000000 0.000000 0.000000 0.000000 0.000000 10.000000 
R_front_hand01_01 0.000000 0.000000 0.000000 0.000000 0.000000 0.000000 10.000000 
R_front_hand02_01 0.000000 0.000000 0.000000 0.000000 0.000000 0.000000 10.000000 
R_front_hand03_01 0.000000 0.000000 0.000000 0.000000 0.000000 0.000000 10.000000 
R_front_hand01_02 0.000000 0.000000 0.000000 0.000000 0.000000 0.000000 10.000000 
R_front_hand02_02 0.000000 0.000000 0.000000 0.000000 0.000000 0.000000 10.000000 
R_front_hand03_02 0.000000 0.000000 0.000000 0.000000 0.000000 0.000000 10.000000 
null_rope01_connect 0.000000 0.000000 0.000000 0.000000 0.000000 0.000000 10.000000 
Rope1_Seg01 0.000000 0.000000 0.000000 0.000000 0.000000 0.000000 10.000000 
Rope1_Seg02 0.000000 0.000000 0.000000 0.000000 0.000000 0.000000 10.000000 
Rope1_Seg03 0.000000 0.000000 0.000000 0.000000 0.000000 0.000000 10.000000 
Rope1_Seg04 0.000000 0.000000 0.000000 0.000000 0.000000 0.000000 10.000000 
Rope1_Seg05 0.000000 0.000000 0.000000 0.000000 0.000000 0.000000 10.000000 
Rope1_Seg06 0.000000 0.000000 0.000000 0.000000 0.000000 0.000000 10.000000 
Rope1_Seg07 0.000000 0.000000 0.000000 0.000000 0.000000 0.000000 10.000000 
Rope1_Seg09 0.000000 0.000000 0.000000 0.000000 0.000000 0.000000 10.000000 
L_mid_hand01 0.000000 0.000000 0.000000 0.000000 0.000000 0.000000 10.000000 
L_mid_hand02 0.000000 0.000000 0.000000 0.000000 0.000000 0.000000 10.000000 
L_mid_hand03 0.000000 0.000000 0.000000 0.000000 0.000000 0.000000 10.000000 
null_rope02_connect 0.000000 0.000000 0.000000 0.000000 0.000000 0.000000 10.000000 
Rope2_Seg01 0.000000 0.000000 0.000000 0.000000 0.000000 0.000000 10.000000 
Rope2_Seg02 0.000000 0.000000 0.000000 0.000000 0.000000 0.000000 10.000000 
Rope2_Seg03 0.000000 0.000000 0.000000 0.000000 0.000000 0.000000 10.000000 
Rope2_Seg04 0.000000 0.000000 0.000000 0.000000 0.000000 0.000000 10.000000 
Rope2_Seg05 0.000000 0.000000 0.000000 0.000000 0.000000 0.000000 10.000000 
Rope2_Seg06 0.000000 0.000000 0.000000 0.000000 0.000000 0.000000 10.000000 
Rope2_Seg07 0.000000 0.000000 0.000000 0.000000 0.000000 0.000000 10.000000 
Rope2_Seg09 0.000000 0.000000 0.000000 0.000000 0.000000 0.000000 10.000000 
R_mid_hand01 0.000000 0.000000 0.000000 0.000000 0.000000 0.000000 10.000000 
R_mid_hand02 0.000000 0.000000 0.000000 0.000000 0.000000 0.000000 10.000000 
R_mid_hand03 0.000000 0.000000 0.000000 0.000000 0.000000 0.000000 10.000000 
spine02 0.000000 0.000000 0.000000 0.000000 0.000000 0.000000 10.000000 
spine03 0.000000 0.000000 0.000000 0.000000 0.000000 0.000000 10.000000 
pelvis 0.000000 0.000000 0.000000 0.000000 0.000000 0.000000 10.000000 
null_rope03_connect 0.000000 0.000000 0.000000 0.000000 0.000000 0.000000 10.000000 
null_rope04_connect 0.000000 0.000000 0.000000 0.000000 0.000000 0.000000 10.000000 
Rope3_Seg01 0.000000 0.000000 0.000000 0.000000 0.000000 0.000000 10.000000 
Rope3_Seg02 0.000000 0.000000 0.000000 0.000000 0.000000 0.000000 10.000000 
Rope3_Seg03 0.000000 0.000000 0.000000 0.000000 0.000000 0.000000 10.000000 
Rope3_Seg04 0.000000 0.000000 0.000000 0.000000 0.000000 0.000000 10.000000 
Rope3_Seg05 0.000000 0.000000 0.000000 0.000000 0.000000 0.000000 10.000000 
Rope3_Seg06 0.000000 0.000000 0.000000 0.000000 0.000000 0.000000 10.000000 
Rope3_Seg07 0.000000 0.000000 0.000000 0.000000 0.000000 0.000000 10.000000 
Rope3_Seg08 0.000000 0.000000 0.000000 0.000000 0.000000 0.000000 10.000000 
Rope3_Seg09 0.000000 0.000000 0.000000 0.000000 0.000000 0.000000 10.000000 
R_rear_hand01 0.000000 0.000000 0.000000 0.000000 0.000000 0.000000 10.000000 
R_rear_hand02 0.000000 0.000000 0.000000 0.000000 0.000000 0.000000 10.000000 
R_rear_hand03 0.000000 0.000000 0.000000 0.000000 0.000000 0.000000 10.000000 
Rope4_Seg01 0.000000 0.000000 0.000000 0.000000 0.000000 0.000000 10.000000 
Rope4_Seg02 0.000000 0.000000 0.000000 0.000000 0.000000 0.000000 10.000000 
Rope4_Seg03 0.000000 0.000000 0.000000 0.000000 0.000000 0.000000 10.000000 
Rope4_Seg04 0.000000 0.000000 0.000000 0.000000 0.000000 0.000000 10.000000 
Rope4_Seg05 0.000000 0.000000 0.000000 0.000000 0.000000 0.000000 10.000000 
Rope4_Seg06 0.000000 0.000000 0.000000 0.000000 0.000000 0.000000 10.000000 
Rope4_Seg07 0.000000 0.000000 0.000000 0.000000 0.000000 0.000000 10.000000 
Rope4_Seg08 0.000000 0.000000 0.000000 0.000000 0.000000 0.000000 10.000000 
Rope4_Seg09 0.000000 0.000000 0.000000 0.000000 0.000000 0.000000 10.000000 
L_rear_hand01 0.000000 0.000000 0.000000 0.000000 0.000000 0.000000 10.000000 
L_rear_hand02 0.000000 0.000000 0.000000 0.000000 0.000000 0.000000 10.000000 
L_rear_hand03 0.000000 0.000000 0.000000 0.000000 0.000000 0.000000 10.000000 
#Beginning of Data. Separated by tabs
#Fr	Tx	Ty	Tz	Rx	Ry	Rz	SF
[MASTER]
5 0.000005 62.822109 0.000000 0.001660 0.001660 0.001660 62.822113
6 0.000005 62.822109 0.000000 0.001660 0.001660 0.001660 62.822113
[root]
5 -16.502295 -62.822117 1500.000000 -84.733429 -26.875935 -91.600807 1501.405640
6 -16.502295 -62.822117 1500.000000 -81.490227 -26.495514 -92.280113 1501.405640
[chest]
5 -84.512650 -34.090519 0.000000 -1.034580 -2.536407 179.209915 91.129311
6 -84.512650 -34.090519 0.000000 0.789817 -4.174867 178.202652 91.129311
[L_mid_tent01]
5 27.299576 22.177427 -249.917984 -2.180820 12.933356 61.224705 252.380859
6 27.299572 22.177433 -249.917984 -0.488819 -3.908242 45.037018 252.380859
[R_mid_tent01]
5 23.228794 24.509907 226.238495 165.844101 -53.446232 84.992416 228.744751
6 23.228794 24.509907 226.238495 175.170349 -61.196850 78.724777 228.744751
[spine01]
5 -0.361383 -0.195265 0.000000 0.682347 0.447736 14.609261 0.410763
6 -0.361383 -0.195265 0.000000 0.603294 0.444303 14.317281 0.410763
[Bip01_Neck]
5 165.484543 71.581718 0.000119 175.896118 1.177290 24.871183 180.302734
6 165.484543 71.581718 0.000119 175.896118 1.177290 24.871183 180.302734
[L_humerus]
5 -13.983130 -135.272980 -120.471481 -158.003387 80.062454 -72.550667 181.680161
6 -13.983130 -135.272980 -120.471481 -155.515930 79.477554 -70.234627 181.680161
[R_humerus]
5 -13.983309 -135.273102 125.287651 -162.183929 -68.220436 -102.764572 184.909012
6 -13.983309 -135.273102 125.287651 -159.328583 -67.616577 -105.739243 184.909012
[weapon_bone]
5 235.964890 -300.705902 0.000000 0.000000 -89.951546 -128.212341 382.234833
6 235.964890 -300.705902 0.000000 0.000000 -89.951546 -128.212341 382.234833
[Bip01_Head]
5 261.355865 108.959381 -2.864225 5.857530 5.841841 -62.455898 283.173523
6 261.355865 108.959389 -2.864225 7.615994 5.846001 -62.457798 283.173523
[eye_left_bone]
5 -24.626970 125.451866 -64.772606 0.000000 -90.000000 -99.840431 143.318359
6 -24.626970 125.451866 -64.772606 0.000000 -90.000000 -99.840431 143.318359
[eye_right_bone]
5 -24.626970 125.451866 64.327362 0.000000 -89.960434 80.159386 143.117676
6 -24.626970 125.451866 64.327362 0.000000 -89.960434 80.159386 143.117676
[L_forearm]
5 322.776093 0.000000 -0.000119 0.000575 0.002276 -61.661213 322.776093
6 322.776093 0.000000 -0.000119 0.000539 0.002285 -63.455135 322.776093
[L_front_hand]
5 241.149185 -0.042021 -3.300071 -179.451263 -2.198824 -5.452232 241.171753
6 241.149185 -0.042021 -3.300071 -179.549637 -2.221653 -2.896225 241.171753
[L_weapon_bone]
5 156.183838 0.000000 0.000000 0.002088 0.001071 35.685062 156.183838
6 156.183838 0.000000 0.000000 0.002126 0.000995 39.830204 156.183838
[L_front_hand01_01]
5 86.095154 20.947098 -0.655860 -0.365397 -0.478071 75.098351 88.609184
6 86.095154 20.947098 -0.655860 -0.366594 -0.477154 75.385574 88.609184
[L_front_hand02_01]
5 86.935165 -11.437475 24.513514 153.962997 -59.762066 -60.859097 91.046425
6 86.935165 -11.437475 24.513514 154.403519 -59.888931 -61.371990 91.046425
[L_front_hand03_01]
5 86.637497 -14.123976 -20.424902 -153.509613 57.991444 -62.227245 90.126129
6 86.637497 -14.123976 -20.424902 -153.913849 58.118122 -62.702866 90.126129
[L_front_hand01_02]
5 71.020905 -0.000179 0.000030 0.001525 0.001784 -8.969077 71.020905
6 71.020905 -0.000179 0.000030 0.001498 0.001807 -10.661773 71.020905
[L_front_hand02_02]
5 71.020927 -0.000119 0.000060 0.001525 0.001784 -8.969077 71.020927
6 71.020927 -0.000119 0.000060 0.001498 0.001807 -10.661773 71.020927
[L_front_hand03_02]
5 71.020905 -0.000060 0.000060 0.001525 0.001784 -8.969077 71.020905
6 71.020905 -0.000060 0.000060 0.001498 0.001807 -10.661773 71.020905
[R_forearm]
5 322.776428 -0.000060 0.000030 0.200781 -0.072685 -71.583153 322.776428
6 322.776428 -0.000060 0.000030 0.200688 -0.072941 -71.436890 322.776428
[R_front_hand]
5 238.847015 -0.006795 2.210259 -0.606169 1.614694 -9.306129 238.857239
6 238.847015 -0.006795 2.210259 -0.301543 1.701446 1.233768 238.857239
[R_weapon_bone]
5 155.664093 0.002503 -0.000030 0.002919 0.002242 -128.661560 155.664078
6 155.664093 0.002503 -0.000030 0.002831 0.002353 -133.071991 155.664078
[R_front_hand01_01]
5 87.624611 14.231146 22.918642 -154.633499 -59.950619 61.746044 91.683487
6 87.624611 14.231146 22.918642 -154.633499 -59.950619 61.746044 91.683487
[R_front_hand02_01]
5 89.356956 14.367283 -19.491137 154.602661 58.302849 63.744389 92.579636
6 89.356956 14.367283 -19.491137 154.602661 58.302849 63.744389 92.579636
[R_front_hand03_01]
5 87.286232 -22.307278 -0.143439 0.162155 -0.423168 -75.767921 90.091743
6 87.286232 -22.307278 -0.143439 0.162155 -0.423168 -75.767921 90.091743
[R_front_hand01_02]
5 71.020905 0.000060 0.000119 0.001784 0.001525 8.967447 71.020905
6 71.020905 0.000060 0.000119 0.001807 0.001498 10.660142 71.020905
[R_front_hand02_02]
5 71.020844 -0.000030 -0.000119 0.001784 0.001525 8.967447 71.020836
6 71.020844 -0.000030 -0.000119 0.001807 0.001498 10.660142 71.020836
[R_front_hand03_02]
5 71.020905 0.000000 0.000030 0.001784 0.001525 8.967447 71.020905
6 71.020905 0.000000 0.000030 0.001807 0.001498 10.660142 71.020905
[null_rope01_connect]
5 328.732483 0.000000 -0.000238 -117.201813 -80.293739 172.345535 328.732483
6 328.732483 0.000000 -0.000238 32.834602 -80.038300 39.040619 328.732483
[Rope1_Seg01]
5 0.000000 0.000000 0.000000 123.368446 22.043987 -178.903473 0.000000
6 0.000000 0.000000 0.000000 154.337769 46.607761 -164.868759 0.000000
[Rope1_Seg02]
5 139.999863 -0.000179 0.000000 6.088411 -22.025171 3.685963 139.999863
6 139.999863 -0.000179 0.000000 -1.578137 -7.826976 10.475471 139.999863
[Rope1_Seg03]
5 139.999924 0.000060 -0.000060 0.598187 -19.286221 6.329729 139.999924
6 139.999924 0.000060 -0.000060 -2.043073 -11.269464 14.851379 139.999924
[Rope1_Seg04]
5 139.999924 -0.000060 -0.000119 -1.558316 -15.302530 4.583831 139.999924
6 139.999924 -0.000060 -0.000119 -2.590280 -13.419675 19.857178 139.999924
[Rope1_Seg05]
5 139.999832 0.000119 -0.000060 -3.156419 -13.362542 2.254555 139.999832
6 139.999832 0.000119 -0.000060 -0.839810 -9.169167 10.403342 139.999832
[Rope1_Seg06]
5 139.999954 0.000119 -0.000060 -2.752598 -7.926851 0.966018 139.999954
6 139.999954 0.000119 -0.000060 -1.462594 -5.357538 1.134685 139.999954
[Rope1_Seg07]
5 139.999985 0.000060 0.000000 -1.966114 -4.666679 0.428316 139.999985
6 139.999985 0.000060 0.000000 -1.495278 -4.271771 0.458342 139.999985
[Rope1_Seg09]
5 121.602913 0.000119 -0.000089 -89.793175 -1.359789 0.847147 121.602913
6 121.602913 0.000119 -0.000089 -89.793175 -1.359789 0.847147 121.602913
[L_mid_hand01]
5 103.859421 1.038730 8.195221 111.431297 -47.263840 -16.612019 104.187431
6 103.859421 1.038730 8.195221 111.431305 -47.263851 -16.612017 104.187431
[L_mid_hand02]
5 105.572853 -4.139662 -10.864139 -150.709808 35.166882 -45.161087 106.211075
6 105.572853 -4.139662 -10.864139 -150.709808 35.166882 -45.161087 106.211075
[L_mid_hand03]
5 104.641464 17.579376 -3.913581 -12.649597 13.975001 50.985863 106.179977
6 104.641464 17.579376 -3.913581 -12.649596 13.974999 50.985855 106.179977
[null_rope02_connect]
5 328.732849 0.000179 -0.000119 -132.600784 31.570812 6.691407 328.732849
6 328.732849 0.000179 -0.000119 -138.476349 22.044613 -1.791914 328.732849
[Rope2_Seg01]
5 -0.000072 0.000136 0.000136 -138.933105 37.564632 -36.735821 0.000205
6 -0.000071 0.000136 0.000131 25.590342 15.620675 -42.653275 0.000202
[Rope2_Seg02]
5 139.999741 -0.000060 -0.000119 17.960339 -12.368423 -4.926638 139.999756
6 139.999741 -0.000060 -0.000119 -122.876472 15.089088 6.430534 139.999756
[Rope2_Seg03]
5 140.000107 0.000030 0.000000 10.132240 -20.646900 -1.424718 140.000107
6 140.000107 0.000030 0.000000 -10.200102 -22.662207 16.963654 140.000107
[Rope2_Seg04]
5 139.999802 0.000000 -0.000060 3.016084 -22.829185 2.845389 139.999802
6 139.999802 0.000000 -0.000060 -5.059918 -23.307718 15.051449 139.999802
[Rope2_Seg05]
5 139.999985 -0.000060 0.000119 0.219594 -21.649632 3.127305 139.999985
6 139.999985 -0.000060 0.000119 -0.077471 -17.550291 4.468555 139.999985
[Rope2_Seg06]
5 139.999893 -0.000030 -0.000119 -0.936106 -13.768105 1.783642 139.999893
6 139.999893 -0.000030 -0.000119 -0.404914 -12.757677 0.698865 139.999893
[Rope2_Seg07]
5 139.999893 0.000060 -0.000060 -0.793723 -6.747341 0.885756 139.999893
6 139.999893 0.000060 -0.000060 -0.519556 -6.788133 1.102648 139.999893
[Rope2_Seg09]
5 121.338966 0.000089 -0.000060 33.793236 -1.359788 -0.847141 121.338966
6 121.338966 0.000089 -0.000060 33.793236 -1.359788 -0.847141 121.338966
[R_mid_hand01]
5 104.680779 11.144459 -10.335981 -34.269653 35.095993 42.885235 105.778534
6 104.680779 11.144459 -10.335981 -34.269650 35.095989 42.885235 105.778534
[R_mid_hand02]
5 104.070427 2.443552 8.231699 68.449066 -47.537163 16.779839 104.424065
6 104.070427 2.443552 8.231699 68.449066 -47.537163 16.779839 104.424065
[R_mid_hand03]
5 106.028137 -11.221827 -5.996406 -171.106766 13.128626 -52.726494 106.788818
6 106.028137 -11.221827 -5.996406 -171.106766 13.128626 -52.726494 106.788818
[spine02]
5 129.756927 0.001550 0.000119 -0.228895 -4.171422 -4.682939 129.756927
6 129.756927 0.001550 0.000119 -0.217413 -4.176498 -4.856724 129.756927
[spine03]
5 78.644791 0.081940 -4.595985 0.747579 3.637245 -1.444280 78.779007
6 78.667038 0.078033 -4.378860 0.877824 3.346710 -0.155765 78.788849
[pelvis]
5 169.435242 0.051022 0.000000 -133.188263 -6.825575 3.329607 169.435257
6 169.435242 0.051022 0.000000 -157.032364 -3.383490 8.067204 169.435257
[null_rope03_connect]
5 -1.257226 -2.466202 137.391083 -159.316101 36.889675 -81.975571 137.418976
6 -1.257226 -2.466202 137.391083 -163.513947 57.836193 -82.235550 137.418976
[null_rope04_connect]
5 -1.259640 -2.480268 -137.844437 -159.316101 36.889675 -81.975571 137.872513
6 -1.259640 -2.480268 -137.844437 -163.513947 57.836193 -82.235550 137.872513
[Rope3_Seg01]
5 0.000000 0.000000 0.000000 -130.761261 12.505433 -76.574196 0.000000
6 0.000000 0.000000 0.000000 -135.425308 18.755640 -92.064583 0.000000
[Rope3_Seg02]
5 139.999924 -0.000119 0.000060 -10.255737 2.464833 46.358871 139.999924
6 139.999924 -0.000119 0.000060 -3.977445 17.274658 44.348328 139.999924
[Rope3_Seg03]
5 139.999924 -0.000119 0.000119 -53.406788 2.207650 42.468727 139.999924
6 139.999924 -0.000119 0.000119 -152.296143 15.158654 33.023571 139.999924
[Rope3_Seg04]
5 139.999924 0.000119 0.000000 -25.538977 -18.135557 1.327006 139.999924
6 139.999924 0.000119 0.000000 10.317436 -4.282386 -14.713966 139.999924
[Rope3_Seg05]
5 139.999924 -0.000238 0.000060 -1.547038 -12.559058 -13.178976 139.999924
6 139.999924 -0.000238 0.000060 13.347239 0.762008 -18.025368 139.999924
[Rope3_Seg06]
5 139.999893 -0.000119 -0.000060 -0.229644 -6.296347 -6.611784 139.999893
6 139.999893 -0.000119 -0.000060 4.938076 -1.884037 -12.102724 139.999893
[Rope3_Seg07]
5 139.999771 0.000060 -0.000119 0.022582 -3.446590 -2.997803 139.999771
6 139.999771 0.000060 -0.000119 1.376165 -1.972448 -5.059469 139.999771
[Rope3_Seg08]
5 139.999985 -0.000060 0.000000 0.289884 -2.017026 -1.759510 139.999985
6 139.999985 -0.000060 0.000000 0.938276 -1.221153 -2.926870 139.999985
[Rope3_Seg09]
5 90.185997 -0.000179 -0.000060 89.793228 -1.359877 -0.847183 90.185997
6 90.185997 -0.000179 -0.000060 89.793228 -1.359877 -0.847183 90.185997
[R_rear_hand01]
5 103.366196 -6.073594 -10.757982 -166.970291 21.129854 -46.704182 104.101845
6 103.366196 -6.073594 -10.757982 -166.970291 21.129850 -46.704182 104.101845
[R_rear_hand02]
5 100.509819 12.039542 -7.992327 -28.148870 27.804201 44.102722 101.543350
6 100.509819 12.039542 -7.992327 -28.148869 27.804199 44.102722 101.543350
[R_rear_hand03]
5 101.539970 5.215704 5.435467 81.628380 -47.127724 10.016966 101.819031
6 101.539970 5.215704 5.435467 81.628380 -47.127724 10.016966 101.819031
[Rope4_Seg01]
5 -0.000016 -0.000072 -0.000136 23.492823 -39.244942 -62.500393 0.000154
6 -0.000015 -0.000071 -0.000131 22.967470 -17.983366 -50.650429 0.000150
[Rope4_Seg02]
5 139.999985 0.000060 0.000119 -7.709415 -2.382283 20.235416 139.999985
6 139.999985 0.000060 0.000119 -18.075464 2.581009 21.039848 139.999985
[Rope4_Seg03]
5 139.999924 0.000000 -0.000238 -20.907644 -10.065036 36.841248 139.999924
6 139.999924 0.000000 -0.000238 -38.570107 -7.332225 32.189278 139.999924
[Rope4_Seg04]
5 139.999985 0.000000 0.000119 -15.681894 -18.791410 26.000114 139.999985
6 139.999985 0.000000 0.000119 -19.743896 -20.708124 16.175425 139.999985
[Rope4_Seg05]
5 139.999802 -0.000060 -0.000119 -2.577755 -0.942452 8.966414 139.999802
6 139.999802 -0.000060 -0.000119 -5.384950 -5.585406 7.536420 139.999802
[Rope4_Seg06]
5 139.999924 0.000000 0.000060 -0.587659 6.040634 5.742909 139.999924
6 139.999924 0.000000 0.000060 -4.120313 0.606911 8.395671 139.999924
[Rope4_Seg07]
5 139.999802 0.000000 0.000000 -1.240423 1.994890 3.992680 139.999802
6 139.999802 0.000000 0.000000 -3.589133 -1.758343 5.487508 139.999802
[Rope4_Seg08]
5 139.999924 0.000000 0.000119 -2.588792 0.556399 2.433099 139.999924
6 139.999924 0.000000 0.000119 -3.807833 -1.755039 3.148559 139.999924
[Rope4_Seg09]
5 90.185791 0.000060 0.000060 -135.617828 2.228885 0.850567 90.185791
6 90.185791 0.000060 0.000060 -135.617828 2.228885 0.850567 90.185791
[L_rear_hand01]
5 101.696655 -8.392275 -7.654577 -27.705481 -28.251705 134.947800 102.329041
6 101.696655 -8.392275 -7.654577 -27.705481 -28.251705 134.947800 102.329041
[L_rear_hand02]
5 102.726799 -1.568258 5.773216 81.477219 48.065086 169.775513 102.900848
6 102.726799 -1.568258 5.773216 81.477219 48.065086 169.775513 102.900848
[L_rear_hand03]
5 104.552910 9.721220 -10.420293 -167.330078 -21.338425 -132.303940 105.519653
6 104.552910 9.721220 -10.420293 -167.330078 -21.338425 -132.303940 105.519653
